<svg xmlns="http://www.w3.org/2000/svg" width="17" height="16" viewBox="0 0 17 16">
    <g fill="none" fill-rule="evenodd" opacity=".5">
        <path fill="#708090" d="M16.81 9.776v6.095h-3.534v-5.687c0-1.428-.51-2.403-1.79-2.403-.976 0-1.557.657-1.813 1.292-.093.228-.117.544-.117.862v5.936H6.02s.048-9.632 0-10.63h3.534v1.507l-.023.034h.023v-.034c.47-.723 1.309-1.756 3.186-1.756 2.326 0 4.07 1.519 4.07 4.784zM2.323.117c1.21 0 1.953.793 1.976 1.836 0 1.02-.766 1.838-2 1.838h-.023C1.091 3.79.323 2.974.323 1.953c0-1.043.79-1.836 2-1.836zM.533 15.871V5.241h3.533v10.63H.533z"/>
        <path d="M-.433-.224h18v17h-18z"/>
    </g>
</svg>
